<svg xmlns="http://www.w3.org/2000/svg" viewBox="0 0 1200 630" role="img" aria-labelledby="title desc">
  <title id="title">Cassandra XR Social Card</title>
  <desc id="desc">Branded social preview card for the Cassandra XR documentation site.</desc>
  <defs>
    <linearGradient id="bg" x1="80" y1="40" x2="1080" y2="590" gradientUnits="userSpaceOnUse">
      <stop offset="0%" stop-color="#F7FBFD"/>
      <stop offset="100%" stop-color="#EAF1F8"/>
    </linearGradient>
    <linearGradient id="ring" x1="760" y1="120" x2="1030" y2="390" gradientUnits="userSpaceOnUse">
      <stop offset="0%" stop-color="#6FC3D0"/>
      <stop offset="100%" stop-color="#4A90E2"/>
    </linearGradient>
  </defs>
  <rect width="1200" height="630" rx="32" fill="url(#bg)"/>
  <circle cx="980" cy="178" r="126" fill="#6FC3D0" fill-opacity=".12"/>
  <circle cx="1060" cy="470" r="180" fill="#4A90E2" fill-opacity=".08"/>
  <g>
    <rect x="84" y="88" width="110" height="110" rx="28" fill="#FFFFFF" stroke="#D9E3EF"/>
    <circle cx="139" cy="143" r="37" fill="none" stroke="url(#ring)" stroke-width="10"/>
    <circle cx="139" cy="143" r="19" fill="#2F3B45"/>
  </g>
  <text x="84" y="300" fill="#4A90E2" font-size="26" font-family="Segoe UI, Arial, sans-serif" letter-spacing="6">XR MEDICAL IMAGING PLATFORM</text>
  <text x="84" y="392" fill="#2F3B45" font-size="76" font-weight="700" font-family="Segoe UI, Arial, sans-serif">CASSANDRA XR</text>
  <text x="84" y="458" fill="#52616C" font-size="34" font-family="Segoe UI, Arial, sans-serif">Technical documentation for architecture, rendering, voice runtime,</text>
  <text x="84" y="502" fill="#52616C" font-size="34" font-family="Segoe UI, Arial, sans-serif">backend orchestration, and platform configuration.</text>
  <circle cx="912" cy="274" r="118" fill="none" stroke="url(#ring)" stroke-width="18"/>
  <circle cx="912" cy="274" r="62" fill="#2F3B45"/>
  <path d="M872 274c0-22.091 17.909-40 40-40 15.169 0 28.365 8.444 35.145 20.894h-28.101C910.184 254.894 902 263.078 902 274c0 10.922 8.184 19.106 17.044 19.106h28.101C940.365 305.556 927.169 314 912 314c-22.091 0-40-17.909-40-40Z" fill="#F7FBFD"/>
</svg>
